<?xml version="1.0" encoding="UTF-8" standalone="no"?>
<!-- Created with Inkscape (http://www.inkscape.org/) -->

<svg
   width="512"
   height="512"
   viewBox="0 0 135.46667 135.46667"
   version="1.1"
   id="svg5"
   inkscape:version="1.1.1 (3bf5ae0d25, 2021-09-20)"
   sodipodi:docname="logoTEST_ignore.svg"
   inkscape:export-filename="C:\Users\kaung\OneDrive\Documents\ISE333\logo2.png"
   inkscape:export-xdpi="300"
   inkscape:export-ydpi="300"
   xmlns:inkscape="http://www.inkscape.org/namespaces/inkscape"
   xmlns:sodipodi="http://sodipodi.sourceforge.net/DTD/sodipodi-0.dtd"
   xmlns="http://www.w3.org/2000/svg"
   xmlns:svg="http://www.w3.org/2000/svg">
  <sodipodi:namedview
     id="namedview7"
     pagecolor="#505050"
     bordercolor="#ffffff"
     borderopacity="1"
     inkscape:pageshadow="0"
     inkscape:pageopacity="0"
     inkscape:pagecheckerboard="1"
     inkscape:document-units="mm"
     showgrid="false"
     units="px"
     width="512px"
     inkscape:zoom="1.6269531"
     inkscape:cx="227.41897"
     inkscape:cy="255.38536"
     inkscape:window-width="1920"
     inkscape:window-height="1051"
     inkscape:window-x="-9"
     inkscape:window-y="-9"
     inkscape:window-maximized="1"
     inkscape:current-layer="layer1"
     inkscape:snap-global="true"
     inkscape:snap-bbox="true" />
  <defs
     id="defs2" />
  <g
     inkscape:label="CircleOuter"
     inkscape:groupmode="layer"
     id="layer1">
    <ellipse
       style="opacity:1;fill:#1231b8;fill-opacity:1;stroke:#000000;stroke-width:2.06607;stroke-miterlimit:4;stroke-dasharray:none;stroke-opacity:1"
       id="path17039"
       cx="-67.73333"
       cy="67.73333"
       rx="64.304291"
       ry="64.933495"
       transform="scale(-1,1)" />
    <text
       xml:space="preserve"
       style="font-style:normal;font-weight:normal;font-size:10.5833px;line-height:1.25;font-family:sans-serif;fill:#000000;fill-opacity:1;stroke:none;stroke-width:0.264583"
       x="49.447105"
       y="18.168938"
       id="text3394"><tspan
         sodipodi:role="line"
         id="tspan3392"
         style="stroke-width:0.264583"
         x="49.447105"
         y="18.168938" /></text>
    <text
       xml:space="preserve"
       style="font-size:10.5833px;line-height:1.25;font-family:'Warsaw Gothic';-inkscape-font-specification:'Warsaw Gothic';stroke-width:0.264583"
       x="45.30735"
       y="20.69879"
       id="text6272"><tspan
         id="tspan6270"
         style="stroke-width:0.264583"
         sodipodi:role="line"
         x="45.30735"
         y="20.69879" /></text>
  </g>
  <g
     inkscape:groupmode="layer"
     id="layer7"
     inkscape:label="rings"
     style="display:none">
    <path
       style="fill:#0412b0;fill-opacity:1;stroke:#63c3dd;stroke-width:0.813075"
       d="m 17.520867,267.57583 0.0035,-4.20008 9.984535,-5.95252 c 13.733962,-8.18784 23.63546,-13.5429 39.487536,-21.35618 10.867799,-5.3566 39.600512,-18.48242 40.458422,-18.48242 0.11141,0 -0.0736,1.34812 -0.41112,2.99582 l -0.61369,2.99582 -9.882472,4.48677 c -27.273123,12.38235 -52.950812,26.34087 -71.654381,38.95167 -3.54958,2.39329 -6.661224,4.44363 -6.914766,4.55632 -0.253541,0.11268 -0.459427,-1.68516 -0.457524,-3.9952 z"
       id="path12783"
       transform="scale(0.26458333)" />
    <path
       style="fill:#0412b0;fill-opacity:1;stroke:#63c3dd;stroke-width:0.813075"
       d="m 51.438217,380.37176 -1.898986,-3.28653 14.567719,-0.39302 c 16.4815,-0.44465 29.167983,-1.25168 47.45127,-3.01851 12.27371,-1.18609 35.78564,-3.99465 38.57789,-4.60822 1.01724,-0.22353 2.0784,0.33459 3.94289,2.07378 l 2.55108,2.37962 -6.7088,1.04697 c -25.1683,3.92777 -60.850501,7.46463 -87.603219,8.68333 l -8.980859,0.40911 z"
       id="path12822"
       transform="scale(0.26458333)" />
    <path
       style="fill:#0412b0;fill-opacity:1;stroke:#63c3dd;stroke-width:0.813075"
       d="m 367.67805,150.38338 -1.56269,-2.04879 8.08345,-1.05869 c 29.40734,-3.85148 47.66185,-5.3067 71.82775,-5.72599 l 20.07699,-0.34835 1.61772,3.19242 1.61772,3.19242 -12.78234,-0.41368 c -19.24881,-0.62296 -48.81074,0.98071 -74.55425,4.0444 -5.57791,0.66382 -10.73116,1.20877 -11.45166,1.211 -0.76549,0.002 -1.95955,-0.84755 -2.87269,-2.04474 z"
       id="path12861"
       transform="scale(0.26458333)" />
    <path
       style="fill:#0412b0;fill-opacity:1;stroke:#63c3dd;stroke-width:0.813075"
       d="m 399.13268,310.59529 1.12896,-2.8741 17.14649,-6.87682 c 24.09329,-9.66292 39.03899,-16.2665 59.17399,-26.14532 9.59292,-4.70657 17.5449,-8.5574 17.67107,-8.5574 0.12617,0 0.2294,1.38083 0.2294,3.0685 v 3.06849 l -7.22209,3.61848 c -17.61587,8.8261 -47.33032,21.71737 -72.64903,31.51796 -8.60234,3.32987 -15.85823,6.0543 -16.12418,6.0543 -0.26596,0 0.0245,-1.29334 0.64539,-2.87409 z"
       id="path12900"
       transform="scale(0.26458333)" />
    <path
       style="fill:#0412b0;fill-opacity:1;stroke:#63c3dd;stroke-width:1.14986"
       d="m 409.01531,257.15645 0.0377,-3.77284 7.87587,-4.78083 c 10.5289,-6.39126 24.60597,-17.75032 29.76748,-24.01996 11.70032,-14.21228 11.77808,-25.17736 0.23367,-32.95182 -8.82648,-5.9441 -24.69646,-9.65926 -45.13554,-10.56623 l -11.96402,-0.5309 -1.72652,-2.79355 c -0.94958,-1.53646 -1.72651,-3.09946 -1.72651,-3.47334 0,-1.10732 37.97093,0.25371 46.93899,1.68248 41.82185,6.66298 51.21024,24.6953 26.07721,50.08667 -10.56717,10.67579 -25.12674,21.08018 -43.67933,31.21361 l -6.73662,3.67954 z"
       id="path12939"
       transform="scale(0.26458333)" />
    <path
       style="fill:#0410af;fill-opacity:1;stroke:#63c3dd;stroke-width:1.14986"
       d="M 104.30886,335.81553 C 84.393686,334.16424 71.091527,331.34775 62.337873,326.92891 46.296785,318.8314 43.109804,307.70572 52.617529,292.99542 59.133642,282.91373 73.304007,270.65749 91.678178,259.21107 103.35973,251.93391 103.005,252.02554 103.005,256.2852 c 0,3.46895 -0.12157,3.60486 -8.040475,8.98867 -11.609975,7.89326 -25.007153,21.35051 -28.402061,28.52942 -4.526316,9.5714 -3.169691,17.46002 4.022109,23.38811 7.189332,5.92605 24.214689,10.77806 41.882147,11.93588 l 8.89371,0.58284 1.70546,3.34298 1.70545,3.34297 -8.49276,-0.14612 c -4.67102,-0.0804 -10.05739,-0.27585 -11.96972,-0.43442 z"
       id="path13017"
       transform="scale(0.26458333)" />
  </g>
  <g
     inkscape:groupmode="layer"
     id="layer2"
     inkscape:label="CircleInner"
     style="display:inline">
    <path
       id="path17039-0-2"
       style="fill:#e1ffff;stroke:#000000;stroke-width:2.06607"
       d="M 107.10432,67.73333 A 39.370995,39.756226 0 0 1 67.73333,107.48956 39.370995,39.756226 0 0 1 28.362335,67.73333 39.370995,39.756226 0 0 1 67.73333,27.977104 39.370995,39.756226 0 0 1 107.10432,67.73333 Z" />
  </g>
  <g
     inkscape:groupmode="layer"
     id="layer3"
     inkscape:label="SilhouetteTest"
     style="display:none">
    <path
       style="fill:#000000;fill-opacity:1;stroke:#63c3dd;stroke-width:0.4;stroke-miterlimit:4;stroke-dasharray:none;stroke-opacity:1"
       d="m 26.524245,46.495902 c -0.360127,-0.04583 -0.497077,-0.229603 -0.497609,-0.66775 -2.07e-4,-0.162439 0.02157,-0.213147 0.146905,-0.342199 0.08093,-0.08333 0.202274,-0.180014 0.269664,-0.214863 0.06739,-0.03485 0.122527,-0.0783 0.122527,-0.09655 0,-0.05634 -0.177992,-0.19987 -0.363009,-0.292734 -0.194885,-0.09782 -0.228812,-0.208963 -0.105411,-0.34532 0.06873,-0.07595 0.06397,-0.07817 -0.155575,-0.07237 -0.124565,0.0033 -0.385169,-0.0042 -0.579119,-0.01661 -0.19395,-0.01243 -0.56733,-0.03314 -0.829733,-0.04602 -0.667028,-0.03275 -0.71092,-0.04323 -1.232911,-0.294334 -0.501162,-0.241088 -0.592503,-0.334771 -0.592503,-0.607695 0,-0.181049 0.08518,-0.295846 0.323435,-0.435902 0.224598,-0.132028 0.333797,-0.137376 1.605095,-0.07861 0.410388,0.01897 0.923786,0.03884 1.140884,0.04416 0.407514,0.01 0.96974,-0.06169 1.121667,-0.142996 0.125306,-0.06706 0.491345,-0.119195 1.342999,-0.191279 0.413133,-0.03497 0.900503,-0.07903 1.083044,-0.09793 0.182541,-0.01889 0.757258,-0.05857 1.277148,-0.08817 l 0.945255,-0.05382 0.275896,-0.530915 c 0.151744,-0.292004 0.290459,-0.530915 0.308258,-0.530915 0.0178,0 0.05188,-0.03647 0.07573,-0.08103 0.03158,-0.059 0.02089,-0.221162 -0.03931,-0.596378 -0.191281,-1.192338 -0.256045,-2.448857 -0.173179,-3.359893 0.02177,-0.239381 0.01447,-0.358823 -0.02791,-0.456353 -0.0325,-0.07481 -0.07289,-0.39302 -0.09311,-0.733662 -0.05043,-0.849418 -0.109332,-1.483324 -0.158054,-1.700954 -0.02299,-0.102679 -0.0619,-0.504063 -0.08647,-0.891963 -0.02457,-0.3879 -0.05556,-0.770615 -0.06886,-0.850476 -0.0133,-0.07986 -0.03874,-0.303295 -0.05653,-0.496517 -0.02944,-0.319776 -0.04344,-0.360744 -0.155948,-0.456354 -0.244555,-0.207828 -0.243238,-0.193978 -0.118427,-1.245923 0.0095,-0.07986 0.07424,-0.339733 0.143929,-0.577492 0.122711,-0.418678 0.126832,-0.459827 0.130885,-1.30683 0.0023,-0.480998 -5.07e-4,-0.97722 -0.0062,-1.102718 -0.01189,-0.260299 -0.01166,-0.304185 0.0051,-0.950243 0.01099,-0.424725 0.0042,-0.479154 -0.06652,-0.531854 -0.05719,-0.04263 -0.124216,-0.04972 -0.244712,-0.02591 -0.09127,0.01804 -0.333968,0.0347 -0.539327,0.03701 -0.205359,0.0023 -0.485394,0.02539 -0.6223,0.05127 -0.136906,0.02589 -0.441734,0.06652 -0.677394,0.09029 -0.235662,0.02377 -0.571704,0.07901 -0.74676,0.122749 -0.175058,0.04374 -0.598321,0.108989 -0.940586,0.145001 -0.40455,0.04257 -0.731174,0.102049 -0.93345,0.169994 -0.78028,0.2621 -1.534456,0.476816 -1.674785,0.476816 -0.10783,0 -0.17752,0.02781 -0.233898,0.09334 -0.392547,0.456287 -0.493425,0.516478 -0.595069,0.355065 -0.03367,-0.05347 -0.02668,-0.08952 0.02937,-0.151457 0.04862,-0.05373 0.0584,-0.09065 0.02885,-0.108916 -0.0392,-0.02423 -0.174636,0.106324 -0.545733,0.526046 -0.162699,0.184017 -0.293998,0.189126 -0.479868,0.01867 -0.154823,-0.141981 -0.15892,-0.153115 -0.157833,-0.428888 8.15e-4,-0.20684 0.02217,-0.314642 0.07926,-0.400101 0.105608,-0.158077 0.658992,-0.517556 0.846746,-0.550048 0.357519,-0.06187 0.399586,-0.07503 1.509566,-0.472177 0.120149,-0.04299 0.37714,-0.108961 0.57109,-0.146603 0.19395,-0.03764 0.464651,-0.09401 0.601557,-0.125262 0.136906,-0.03125 0.351599,-0.07887 0.477097,-0.105814 0.125497,-0.02695 0.312187,-0.08099 0.414866,-0.120102 0.10268,-0.03911 0.317373,-0.113424 0.477097,-0.165141 0.268181,-0.08684 0.921167,-0.38888 1.265343,-0.585297 0.07986,-0.04558 0.229214,-0.1196 0.331894,-0.164496 0.102679,-0.0449 0.303066,-0.184071 0.445303,-0.309275 0.142238,-0.125204 0.310259,-0.240447 0.37338,-0.256097 0.06312,-0.01565 0.180108,-0.07126 0.25997,-0.123586 0.176358,-0.115543 0.985762,-0.401891 1.057831,-0.374236 0.02841,0.0109 0.189406,-0.0169 0.357763,-0.06179 0.168357,-0.04489 0.408037,-0.108723 0.532624,-0.141858 0.124587,-0.03314 0.368383,-0.06025 0.541769,-0.06025 0.46501,0 0.482478,-0.02065 0.415119,-0.490586 -0.08518,-0.594261 -7.46e-4,-0.923177 0.324881,-1.265645 0.216691,-0.227897 0.33365,-0.276616 0.664075,-0.276616 0.244818,0 0.328915,0.02065 0.551759,0.135471 0.235046,0.121111 0.278256,0.163988 0.407629,0.404495 0.141213,0.262516 0.145077,0.282387 0.159709,0.821321 0.01772,0.652767 -0.0311,0.603936 0.648444,0.648489 0.250264,0.01641 0.492961,0.04968 0.539326,0.07393 0.0889,0.0465 0.209065,0.142501 0.637266,0.509094 0.23844,0.204134 0.792906,0.477214 0.968945,0.477214 0.02849,0 0.12711,0.0264 0.219143,0.05866 0.09203,0.03226 0.391362,0.12693 0.665174,0.210371 0.273812,0.08344 0.665861,0.205115 0.87122,0.270386 0.205359,0.06527 0.490274,0.130241 0.633145,0.144379 0.142871,0.01414 0.474725,0.08896 0.737455,0.166268 0.262729,0.07731 0.621894,0.162107 0.798145,0.188438 0.17625,0.02633 0.398731,0.06481 0.494401,0.0855 0.09567,0.02069 0.283864,0.03762 0.418207,0.03762 0.178263,0 0.299407,0.02798 0.448354,0.103543 0.112251,0.05695 0.229296,0.103621 0.2601,0.103717 0.0308,8.3e-5 0.11566,0.06085 0.188569,0.135005 0.10207,0.103818 0.144874,0.198141 0.18609,0.410065 0.04778,0.245697 0.04585,0.290218 -0.01804,0.414867 -0.151686,0.29595 -0.286738,0.2797 -0.735887,-0.08854 -0.194815,-0.159723 -0.365133,-0.290406 -0.378483,-0.290406 -0.04635,0 -0.02393,0.08924 0.03796,0.15113 0.07855,0.07855 0.07925,0.156478 0.002,0.220597 -0.09111,0.07562 -0.221478,0.01457 -0.469199,-0.219715 L 42.69879,26.19186 42.151758,26.1632 c -0.300867,-0.01577 -0.621707,-0.04881 -0.712978,-0.07344 -0.09127,-0.02463 -0.28112,-0.04522 -0.421887,-0.04577 -0.140768,-5.43e-4 -0.364796,-0.02805 -0.49784,-0.06113 -0.214772,-0.0534 -0.797425,-0.12169 -1.98434,-0.232584 -0.205359,-0.01919 -0.438598,-0.05452 -0.518309,-0.07851 -0.276491,-0.08323 -0.542838,-0.05398 -0.742905,0.08159 -0.100409,0.06804 -0.223887,0.123705 -0.274396,0.123705 -0.127615,0 -0.141705,0.151767 -0.119984,1.292409 0.01134,0.595685 -0.0036,1.218472 -0.0409,1.700954 -0.04632,0.599735 -0.04863,0.831574 -0.01088,1.093073 0.02635,0.182542 0.03593,0.443908 0.0213,0.580814 -0.01464,0.136906 -0.02905,0.379603 -0.03203,0.539326 -0.0062,0.332471 -0.08762,0.546934 -0.298912,0.787347 l -0.140289,0.159623 -0.02261,0.895575 c -0.02175,0.861732 -0.02743,0.909685 -0.150123,1.268955 -0.07013,0.205359 -0.13974,0.485394 -0.154684,0.6223 -0.03436,0.314742 -0.184188,0.861082 -0.348963,1.272443 -0.07011,0.175037 -0.176917,0.529748 -0.237341,0.788247 -0.161926,0.692738 -0.360803,1.346741 -0.634936,2.087977 -0.06751,0.182541 -0.173566,0.499914 -0.23568,0.705273 -0.108684,0.359327 -0.370103,0.895945 -0.568437,1.16684 -0.05222,0.07132 -0.175675,0.233546 -0.274351,0.360503 -0.164858,0.212105 -0.183813,0.262162 -0.233672,0.617086 -0.02984,0.212442 -0.04245,0.397379 -0.02802,0.410971 0.03523,0.03318 1.879636,-0.03534 2.349492,-0.08729 1.468287,-0.162323 2.244497,-0.197399 4.003463,-0.18091 0.969751,0.0091 1.884532,0.01939 2.032847,0.02288 0.148315,0.0035 0.61504,-0.02008 1.037167,-0.05239 0.422127,-0.03231 0.954193,-0.05836 1.18237,-0.05788 0.367064,7.63e-4 0.439013,0.0135 0.624427,0.110533 0.313104,0.163856 0.384868,0.386131 0.225516,0.698486 -0.04593,0.09003 -0.128655,0.193269 -0.183836,0.229425 -0.290636,0.190433 -0.947793,0.348281 -1.528915,0.367244 -0.204134,0.0067 -0.386043,0.03298 -0.412793,0.05973 -0.03611,0.03611 -0.02606,0.04782 0.041,0.04782 0.175213,0 0.149136,0.09452 -0.08661,0.313935 -0.128997,0.120061 -0.23454,0.238959 -0.23454,0.264218 0,0.02526 0.04807,0.06783 0.106828,0.0946 0.232379,0.105879 0.318076,0.493733 0.172716,0.781688 -0.210731,0.417453 -0.783888,0.494298 -1.060825,0.142229 -0.06651,-0.08455 -0.08994,-0.171494 -0.08994,-0.333743 0,-0.186777 0.02155,-0.247639 0.144929,-0.409272 0.173332,-0.227076 0.150922,-0.241922 -0.06742,-0.04467 -0.217786,0.196758 -0.318517,0.192499 -0.463666,-0.0196 -0.08073,-0.117971 -0.09016,-0.304879 -0.02483,-0.492288 0.04661,-0.133705 0.04887,-0.134817 0.514699,-0.25293 0.140449,-0.03561 0.118137,-0.03862 -0.145203,-0.01958 -0.402044,0.02907 -0.61368,0.05114 -0.99568,0.103813 -0.171132,0.0236 -0.367157,0.05046 -0.43561,0.05969 -0.06845,0.0092 -0.189801,0.02644 -0.269663,0.03823 -0.07986,0.01179 -0.247883,0.03114 -0.37338,0.04299 -0.125497,0.01186 -0.293518,0.03025 -0.37338,0.04088 -0.243118,0.03235 -0.967085,0.08571 -1.74244,0.128435 -0.262404,0.01446 -0.487628,0.03265 -0.500498,0.04043 -0.01287,0.0078 -0.199561,0.0251 -0.414867,0.03849 -0.215306,0.01339 -0.48481,0.03228 -0.598899,0.04197 -0.114088,0.0097 -0.431461,0.02909 -0.705273,0.04312 -0.273812,0.01403 -0.553847,0.03196 -0.6223,0.03986 -0.06845,0.0079 -0.348488,0.0255 -0.6223,0.03911 -0.273812,0.01362 -0.628523,0.03343 -0.788247,0.04402 -0.159724,0.0106 -0.589111,0.02966 -0.954193,0.04237 -0.365083,0.01271 -0.79447,0.03182 -0.954194,0.04248 -0.159723,0.01066 -0.523769,0.0284 -0.80899,0.03943 -0.873647,0.03377 -1.425874,0.06536 -1.543981,0.08834 -0.228574,0.04447 -0.588087,0.07292 -1.235625,0.0978 -0.05218,0.002 -0.05286,0.0083 -0.0043,0.0391 0.03188,0.02019 0.169334,0.0297 0.305443,0.02115 0.325031,-0.02044 0.404088,0.024 0.404088,0.22715 0,0.262387 -0.20731,0.459277 -0.551587,0.523864 -0.102656,0.01926 -0.175942,0.01129 -0.218129,-0.02373 -0.04736,-0.03931 -0.07551,-0.04075 -0.110579,-0.0057 -0.03507,0.03507 -0.0267,0.06955 0.03287,0.135467 0.120504,0.133325 0.110515,0.546693 -0.01825,0.755033 -0.158884,0.25708 -0.636734,0.449446 -1.001232,0.403062 z m 1.048328,-2.060015 c -0.02809,-0.01136 -0.0841,-0.01206 -0.12446,-0.0015 -0.04037,0.01052 -0.01738,0.01982 0.05107,0.02066 0.06845,8.46e-4 0.101478,-0.0078 0.07339,-0.01913 z m 14.509172,-0.475524 c 0,-0.02282 -0.01867,-0.02995 -0.04149,-0.01585 -0.02282,0.0141 -0.04149,0.04431 -0.04149,0.06713 0,0.02282 0.01867,0.02995 0.04149,0.01585 0.02282,-0.0141 0.04149,-0.04431 0.04149,-0.06713 z m -8.420482,-6.031052 c 0.02545,-0.114287 0.08428,-0.366481 0.130744,-0.560431 0.04646,-0.19395 0.101064,-0.492654 0.121343,-0.663787 0.03878,-0.327264 0.0055,-1.048257 -0.04683,-1.015889 -0.06536,0.0404 -0.230647,0.902146 -0.28636,1.492986 -0.01936,0.205359 -0.04877,0.443513 -0.06535,0.529232 -0.03773,0.195072 0.0117,0.568855 0.06403,0.484188 0.01989,-0.03218 0.05698,-0.152012 0.08243,-0.266299 z"
       id="path70526" />
  </g>
  <g
     inkscape:groupmode="layer"
     id="layer4"
     inkscape:label="Silhouette">
    <path
       style="fill:#000000;fill-opacity:1;stroke:#87c9fa;stroke-width:0.723124;stroke-miterlimit:4;stroke-dasharray:none;stroke-opacity:1"
       d="m 52.254189,94.358317 c -0.759231,-0.09661 -1.047956,-0.484057 -1.049075,-1.407774 -4.38e-4,-0.342461 0.04547,-0.449364 0.30971,-0.721436 0.170616,-0.175678 0.42644,-0.379512 0.568514,-0.452982 0.142083,-0.07347 0.258314,-0.165058 0.258314,-0.203549 0,-0.118757 -0.375248,-0.421373 -0.765307,-0.617151 -0.410863,-0.206215 -0.48239,-0.440544 -0.222231,-0.728017 0.144914,-0.16012 0.134853,-0.16479 -0.327988,-0.152558 -0.262612,0.007 -0.812025,-0.0089 -1.220919,-0.03502 -0.408892,-0.0262 -1.196064,-0.06987 -1.74927,-0.09702 -1.406252,-0.06905 -1.498785,-0.09113 -2.599266,-0.620525 -1.056568,-0.50827 -1.249133,-0.705776 -1.249133,-1.281164 0,-0.381693 0.179582,-0.623711 0.681875,-0.918983 0.473506,-0.278345 0.703721,-0.28962 3.383915,-0.16574 0.865196,0.04 1.947558,0.0819 2.40525,0.09312 0.859138,0.02105 2.04444,-0.130039 2.364738,-0.301469 0.264174,-0.141381 1.035869,-0.251292 2.831356,-0.403261 0.87098,-0.07372 1.89847,-0.166629 2.28331,-0.206442 0.384841,-0.03983 1.596479,-0.123468 2.692526,-0.185884 l 1.992819,-0.113469 0.581654,-1.119295 c 0.319911,-0.615612 0.612356,-1.119293 0.649878,-1.119293 0.03752,0 0.109378,-0.07688 0.159645,-0.170843 0.06657,-0.124378 0.04403,-0.466264 -0.08287,-1.257305 -0.403263,-2.513728 -0.539804,-5.162766 -0.365101,-7.083441 0.04591,-0.504671 0.03049,-0.756483 -0.05884,-0.962099 -0.06853,-0.157703 -0.153675,-0.828578 -0.196298,-1.546731 -0.10632,-1.790772 -0.230497,-3.127195 -0.333213,-3.586009 -0.04847,-0.216472 -0.130493,-1.062682 -0.18229,-1.880468 -0.0518,-0.817783 -0.117125,-1.624635 -0.145162,-1.793003 -0.02806,-0.168364 -0.08167,-0.639415 -0.119191,-1.046774 -0.06206,-0.674162 -0.09159,-0.76053 -0.328776,-0.9621 -0.515577,-0.438151 -0.512802,-0.408949 -0.24967,-2.626697 0.02004,-0.168364 0.156526,-0.716236 0.303436,-1.217489 0.261163,-0.891069 0.266991,-0.951822 0.261634,-2.727734 -0.0031,-0.999001 0.01302,-1.848362 0.03552,-1.887466 0.02254,-0.03911 0.01116,-0.315613 -0.02525,-0.614457 -0.03642,-0.298843 -0.03839,-0.911457 -0.0043,-1.36136 0.03403,-0.449906 0.04494,-0.963049 0.02424,-1.140322 l -0.03762,-0.322313 h -0.554077 c -0.725333,0 -3.270083,-0.238325 -4.324748,-0.40503 -1.142559,-0.180595 -6.311147,-0.318311 -7.514636,-0.200223 -0.501128,0.04917 -1.111186,0.06496 -1.355687,0.0351 -0.596127,-0.07281 -1.01401,0.109584 -1.334112,0.582309 -0.345061,0.509594 -0.690483,0.755202 -0.884728,0.629077 -0.08791,-0.05709 -0.143096,-0.191793 -0.133407,-0.325755 0.01426,-0.196752 -0.006,-0.216438 -0.144955,-0.142022 -0.0888,0.04752 -0.371725,0.320724 -0.628738,0.607117 -0.594311,0.662249 -0.819713,0.726438 -1.243705,0.354167 -0.30827,-0.270663 -0.316888,-0.295101 -0.316888,-0.898579 0,-0.527792 0.0344,-0.669989 0.230555,-0.95304 0.126795,-0.182971 0.280514,-0.332689 0.341579,-0.332689 0.06107,0 0.27513,-0.137104 0.475702,-0.304679 0.321859,-0.268905 1.047047,-0.569956 1.37294,-0.569956 0.06324,0 0.36112,-0.07985 0.661969,-0.177455 0.300846,-0.0976 0.72411,-0.232191 0.940582,-0.29909 0.228127,-0.0705 1.018653,-0.144811 1.880466,-0.176773 0.817785,-0.03033 1.76413,-0.112126 2.102986,-0.181773 0.400125,-0.08225 1.09,-0.122952 1.967931,-0.116092 1.184035,0.0093 1.482101,-0.01922 2.40139,-0.229332 0.57726,-0.131939 1.305394,-0.330937 1.618077,-0.442242 0.312683,-0.111299 0.890751,-0.281738 1.284597,-0.378738 0.497834,-0.122621 0.924356,-0.305414 1.399419,-0.599773 0.689247,-0.427071 2.229793,-1.030921 2.432067,-0.953301 0.0601,0.02306 0.399684,-0.0355 0.75462,-0.130121 0.354934,-0.09463 0.860237,-0.229212 1.122896,-0.29907 0.262657,-0.06985 0.776636,-0.127022 1.142175,-0.127022 0.98035,0 1.017177,-0.04353 0.87517,-1.03427 -0.179583,-1.25284 -0.0016,-1.946272 0.684923,-2.668275 0.456837,-0.480462 0.703412,-0.58317 1.400026,-0.58317 0.516133,0 0.693429,0.04353 1.163236,0.285603 0.495535,0.255331 0.58663,0.345723 0.85938,0.85277 0.297708,0.553444 0.305855,0.595338 0.336701,1.731537 0.03736,1.376184 -0.06558,1.273238 1.367073,1.367166 0.527614,0.03459 1.039276,0.104729 1.137026,0.155864 0.187413,0.09803 0.440756,0.300425 1.343505,1.073288 0.502689,0.430364 1.671631,1.006078 2.042764,1.006078 0.06008,0 0.267977,0.05566 0.462004,0.123675 0.194024,0.06801 0.825082,0.2676 1.402342,0.443513 0.57726,0.175905 1.403791,0.432428 1.836736,0.570035 0.432944,0.1376 1.033613,0.274578 1.334819,0.304386 0.301204,0.02981 1.000831,0.187537 1.554725,0.350531 0.553897,0.162992 1.311101,0.341759 1.682677,0.397272 0.371579,0.05551 0.84062,0.136629 1.042313,0.180265 0.20169,0.04364 0.598452,0.07932 0.881679,0.07932 0.37582,0 0.631221,0.05899 0.945235,0.218293 0.236652,0.120059 0.483411,0.218457 0.548351,0.218658 0.06494,1.75e-4 0.24384,0.128282 0.397549,0.284624 0.215185,0.218871 0.305429,0.417726 0.39232,0.864511 0.100741,0.517989 0.09665,0.611848 -0.03804,0.874638 -0.319789,0.623932 -0.604512,0.589672 -1.551422,-0.18667 -0.410716,-0.336734 -0.769787,-0.612244 -0.797933,-0.612244 -0.0977,0 -0.05045,0.188136 0.08002,0.318616 0.165596,0.165596 0.167083,0.329894 0.0041,0.465073 -0.192082,0.159418 -0.466927,0.03072 -0.98918,-0.463213 l -0.469411,-0.443949 -1.153271,-0.06043 c -0.6343,-0.03324 -1.310704,-0.102911 -1.503126,-0.154832 -0.192413,-0.05192 -0.592666,-0.09535 -0.889436,-0.09649 -0.296773,-0.0011 -0.769076,-0.05915 -1.049564,-0.128881 -0.452789,-0.11258 -1.681158,-0.256552 -4.183451,-0.490343 -0.432945,-0.04045 -0.924669,-0.114935 -1.092719,-0.165512 -0.582906,-0.175472 -1.144429,-0.1138 -1.566217,0.172 -0.211685,0.143447 -0.472006,0.2608 -0.578491,0.2608 -0.269044,0 -0.298747,0.319962 -0.252953,2.724701 0.02393,1.255844 -0.0076,2.568822 -0.08622,3.586008 -0.09766,1.264383 -0.102518,1.753153 -0.02295,2.304454 0.05556,0.384841 0.07574,0.935862 0.0449,1.224491 -0.03087,0.28863 -0.06124,0.800292 -0.06752,1.137027 -0.01302,0.700928 -0.184706,1.153065 -0.630178,1.659913 l -0.295762,0.336521 -0.04766,1.888082 c -0.04587,1.816731 -0.05783,1.917828 -0.316493,2.675253 -0.147848,0.432945 -0.294607,1.023325 -0.326112,1.311954 -0.07244,0.663552 -0.38831,1.815365 -0.735694,2.682609 -0.147828,0.369019 -0.372984,1.116833 -0.500369,1.661808 -0.341379,1.460453 -0.760659,2.839246 -1.338596,4.401945 -0.142332,0.384838 -0.365918,1.053935 -0.496869,1.486879 -0.229131,0.757547 -0.780264,1.888863 -1.198399,2.459972 -0.11008,0.150368 -0.370361,0.492371 -0.578394,0.760024 -0.347558,0.447168 -0.38752,0.5527 -0.492635,1.300965 -0.06291,0.447876 -0.0895,0.837766 -0.05907,0.866422 0.07425,0.06996 3.962712,-0.0745 4.953279,-0.184024 3.095492,-0.342216 4.731924,-0.416163 8.440238,-0.381399 2.044462,0.01922 3.973034,0.04087 4.285715,0.04824 0.312683,0.0074 1.296649,-0.04233 2.186592,-0.110452 0.88994,-0.06812 2.011661,-0.123035 2.492712,-0.122022 0.773857,0.0016 0.925541,0.02847 1.316439,0.233027 0.660095,0.345447 0.811389,0.814055 0.47544,1.472573 -0.09684,0.18981 -0.271235,0.407458 -0.38757,0.483683 -0.61273,0.401475 -1.99817,0.734256 -3.223311,0.774235 -0.430363,0.01405 -0.813868,0.06954 -0.870264,0.125927 -0.07611,0.07611 -0.05496,0.100824 0.08642,0.100824 0.369388,0 0.314414,0.199272 -0.182579,0.661847 -0.271956,0.253116 -0.494464,0.503782 -0.494464,0.557032 0,0.05326 0.101341,0.142993 0.225218,0.199438 0.489909,0.223218 0.670578,1.040904 0.364124,1.647982 -0.444269,0.880087 -1.652618,1.042094 -2.236466,0.29985 -0.140224,-0.17826 -0.189603,-0.361547 -0.189603,-0.703608 0,-0.39377 0.04543,-0.522081 0.305543,-0.86284 0.365425,-0.478731 0.31818,-0.51003 -0.142125,-0.09417 -0.459145,0.414809 -0.67151,0.405831 -0.977518,-0.04132 -0.170202,-0.248709 -0.190078,-0.642756 -0.05233,-1.037859 0.09826,-0.28188 0.103035,-0.284223 1.085108,-0.533233 0.296096,-0.07508 0.24906,-0.08142 -0.306124,-0.04128 -0.847602,0.0613 -1.29378,0.107808 -2.099126,0.218863 -0.360787,0.04975 -0.774053,0.106382 -0.918368,0.125845 -0.144315,0.01942 -0.400146,0.05574 -0.568514,0.0806 -0.168364,0.02486 -0.522593,0.06564 -0.787172,0.09064 -0.264577,0.025 -0.618804,0.06378 -0.787173,0.08618 -0.512546,0.0682 -2.03884,0.180699 -3.673471,0.270771 -0.553206,0.03047 -1.028032,0.06884 -1.055166,0.08522 -0.02713,0.01632 -0.42072,0.05291 -0.874635,0.08114 -0.453916,0.02822 -1.022095,0.06803 -1.262621,0.08847 -0.240523,0.02045 -0.90962,0.06134 -1.486879,0.09091 -0.57726,0.02957 -1.167639,0.0674 -1.311954,0.08403 -0.144315,0.01673 -0.734695,0.05376 -1.311954,0.08246 -0.57726,0.0287 -1.325074,0.07047 -1.66181,0.09281 -0.336734,0.02233 -1.241983,0.06254 -2.011662,0.08932 -0.769681,0.0268 -1.674929,0.06709 -2.011663,0.08956 -0.336736,0.02248 -1.104229,0.05987 -1.70554,0.08312 -1.841853,0.0712 -3.006079,0.137807 -3.255076,0.186235 -0.481888,0.09374 -1.239823,0.153737 -2.604987,0.206173 -0.109997,0.0041 -0.111443,0.01756 -0.0089,0.08242 0.06723,0.04256 0.356996,0.06262 0.643945,0.04459 0.685242,-0.0431 0.851912,0.0506 0.851912,0.478884 0,0.553173 -0.437058,0.968263 -1.162874,1.104427 -0.216423,0.0406 -0.370926,0.0238 -0.459868,-0.05002 -0.09985,-0.08287 -0.159191,-0.08591 -0.233127,-0.01198 -0.07392,0.07394 -0.0563,0.146629 0.06932,0.285597 0.25405,0.281081 0.232991,1.152557 -0.03847,1.591785 -0.334963,0.541986 -1.342383,0.947538 -2.11083,0.849751 z m 2.21012,-4.342995 c -0.05921,-0.02397 -0.177289,-0.02541 -0.262391,-0.0033 -0.0851,0.02217 -0.03665,0.04178 0.107663,0.04355 0.144315,0.0018 0.213941,-0.01632 0.154728,-0.04033 z M 85.05304,89.012807 c 0,-0.0481 -0.03936,-0.06314 -0.08746,-0.03341 -0.0481,0.02973 -0.08746,0.09341 -0.08746,0.141526 0,0.0481 0.03936,0.06314 0.08746,0.03341 0.0481,-0.02973 0.08746,-0.09341 0.08746,-0.141526 z M 67.300694,76.297938 c 0.05366,-0.240943 0.177682,-0.772627 0.275638,-1.181521 0.09795,-0.408891 0.213068,-1.038629 0.255819,-1.399417 0.08175,-0.689951 0.01178,-2.209971 -0.09874,-2.14173 -0.137786,0.08516 -0.486259,1.901932 -0.603713,3.147561 -0.04083,0.432945 -0.102829,0.935031 -0.137766,1.115746 -0.07954,0.411257 0.02467,1.199279 0.134977,1.02078 0.04192,-0.06783 0.120121,-0.320476 0.173777,-0.561419 z"
       id="path170932" />
  </g>
  <g
     inkscape:groupmode="layer"
     id="layer6"
     inkscape:label="RIDERZ CO">
    <g
       aria-label="RIDERZ CO"
       transform="rotate(-51.548181,61.318,66.604788)"
       id="text106699"
       style="font-size:22.5778px;line-height:1.25;font-family:'Warsaw Gothic';-inkscape-font-specification:'Warsaw Gothic';letter-spacing:2.64583px;word-spacing:6.61458px;fill:#e1ffff;stroke-width:0.264583">
      <path
         d="m 10.494477,70.644902 c -1.149509,1.540899 -4.6337915,1.528624 -6.8683544,2.344432 l 0.1494321,2.433819 c 2.6328841,-0.59144 5.8204531,-0.990734 7.9271193,-2.047512 0.687719,0.885208 2.201342,1.22206 3.846424,1.121055 3.132415,-0.192324 4.701397,-1.532775 4.522909,-4.439837 L 19.922575,67.62304 3.3590819,68.640009 3.508514,71.073828 Z m 2.253536,-0.138363 4.91271,-0.301631 c 0.07887,1.284516 -0.655512,1.849873 -2.345664,1.953645 -1.690153,0.103772 -2.489562,-0.390033 -2.567046,-1.652014 z"
         style="stroke:#000000"
         id="path3102" />
      <path
         d="M 20.724746,76.141888 4.4479389,79.374391 4.922919,81.766085 21.199726,78.533582 Z"
         style="stroke:#000000"
         id="path3104" />
      <path
         d="m 5.9514161,86.103766 0.6292929,1.813005 c 0.7403447,2.132946 1.5667201,3.136668 2.9758701,3.34063 1.4017469,0.182632 3.3723419,-0.405764 6.4437849,-1.47186 3.071443,-1.066097 5.004139,-1.832532 5.991293,-2.84435 0.97975,-1.033147 1.006553,-2.333007 0.266209,-4.465954 l -0.629293,-1.813004 z m 3.1031544,1.50401 11.0699925,-3.842389 c 0.273927,0.78919 0.344082,1.266723 -0.321012,1.760468 -0.346913,0.239909 -0.871865,0.517717 -1.589663,0.790763 -0.739128,0.28045 -1.741613,0.628412 -3.021381,1.072619 -1.279768,0.444207 -2.282253,0.792169 -3.036187,1.02996 -0.753935,0.237791 -1.338115,0.344963 -1.737733,0.364174 -0.8492988,0.0319 -1.090089,-0.386405 -1.3640165,-1.175595 z"
         style="stroke:#000000"
         id="path3106" />
      <path
         d="m 24.577858,88.539299 -14.6189849,7.852949 2.6390179,4.912772 2.207765,-1.18595 -1.485115,-2.764682 4.017734,-2.158225 1.068429,1.988977 2.346993,-1.260745 -1.068428,-1.988978 3.838727,-2.062067 1.485115,2.764679 2.207765,-1.185956 z"
         style="stroke:#000000"
         id="path3108" />
      <path
         d="m 21.804079,102.39318 c -0.101409,1.91975 -3.007012,3.84273 -4.413449,5.76126 l 1.474682,1.94194 c 1.862311,-1.95287 4.292708,-4.05363 5.459042,-6.10167 1.063298,0.35489 2.509472,-0.20467 3.822078,-1.20145 2.499345,-1.89797 3.060955,-3.883692 1.299529,-6.203228 L 27.971279,94.648095 14.755318,104.68413 16.23,106.62606 Z m 1.79809,-1.36545 3.919836,-2.97667 c 0.778304,1.024911 0.481006,1.902723 -0.867561,2.92681 -1.348567,1.02408 -2.287625,1.05679 -3.052275,0.0499 z"
         style="stroke:#000000"
         id="path3110" />
      <path
         d="m 22.919107,110.67616 -1.813703,1.88939 4.65831,4.47171 1.672984,-1.74279 -2.801501,-2.68928 10.947528,-5.79666 1.672985,-1.7428 -4.267403,-4.09646 -1.672984,1.74279 2.36173,2.26713 z"
         style="stroke:#000000"
         id="path3112" />
      <path
         d="m 48.133545,114.2194 c 0.62082,0.27086 0.613711,0.90822 0.36091,1.48765 l -0.911886,2.09009 2.090094,0.91189 0.911887,-2.09009 c 0.470604,-1.24803 0.451345,-2.38956 -0.05251,-3.32374 -0.278451,-0.49098 -0.746903,-0.9417 -1.491887,-1.26673 -1.427887,-0.62297 -2.518594,-0.21204 -3.329731,0.51792 -0.435292,0.37665 -0.803228,0.88122 -1.08575,1.47232 l -3.909376,8.9605 c -0.521021,1.25067 -0.501762,2.39219 0.03181,3.31471 0.269423,0.51168 0.767598,0.95072 1.512582,1.27575 1.365804,0.59589 2.500536,0.25344 3.320702,-0.49722 0.435292,-0.37665 0.803227,-0.88122 1.094779,-1.49301 l 0.911887,-2.09009 -2.090095,-0.91189 -0.911887,2.09009 c -0.279886,0.64152 -0.694483,1.02719 -1.335997,0.74731 -0.558738,-0.24377 -0.521907,-0.8928 -0.298829,-1.46056 l 3.909376,-8.96051 c 0.267103,-0.49929 0.673789,-1.03622 1.273916,-0.77439 z"
         style="stroke:#000000"
         id="path3114" />
      <path
         d="m 56.203553,128.24669 2.37202,-9.48406 c 0.257498,-1.30872 0.04953,-2.4313 -0.602026,-3.26918 -0.355891,-0.43811 -0.892494,-0.80505 -1.681007,-1.00226 -1.511317,-0.37799 -2.518945,0.20783 -3.198044,1.06201 -0.366931,0.44351 -0.646259,1.00203 -0.827027,1.63174 l -2.37202,9.48406 c -0.306783,1.31966 -0.09881,2.44225 0.580122,3.2637 0.350413,0.46002 0.914398,0.81053 1.702911,1.00774 1.445607,0.36156 2.507988,-0.16402 3.192566,-1.0401 0.366931,-0.44352 0.646258,-1.00203 0.832505,-1.65365 z m -0.486214,-11.45567 c 0.613287,0.15338 0.635125,0.8105 0.492695,1.37998 l -2.37202,9.48406 c -0.158865,0.63519 -0.492946,1.13346 -1.084331,0.98555 -0.591385,-0.14791 -0.646082,-0.76669 -0.492695,-1.37998 l 2.37202,-9.48406 c 0.142431,-0.56948 0.471043,-1.13894 1.084331,-0.98555 z"
         style="stroke:#000000"
         id="path3116" />
    </g>
  </g>
  <g
     inkscape:groupmode="layer"
     id="layer5"
     inkscape:label="INDIGO">
    <text
       xml:space="preserve"
       style="font-size:10.5833px;line-height:1.25;font-family:'Warsaw Gothic';-inkscape-font-specification:'Warsaw Gothic';fill:#000000;stroke-width:0.264583"
       x="45.30735"
       y="19.433863"
       id="text28353"><tspan
         sodipodi:role="line"
         id="tspan28351"
         style="fill:#000000;stroke-width:0.264583"
         x="45.30735"
         y="19.433863" /></text>
    <g
       aria-label="INDIGO"
       transform="rotate(-119.46295,65.62003,65.765235)"
       id="text55634"
       style="font-size:22.5778px;line-height:1.25;font-family:'Warsaw Gothic';-inkscape-font-specification:'Warsaw Gothic';fill:#e1ffff;stroke-width:0.264583">
      <path
         d="m 123.68488,69.501479 -16.57216,-0.864241 -0.12699,2.435093 16.57216,0.864242 z"
         style="stroke:#000000"
         id="path1489" />
      <path
         d="m 115.6228,77.230954 c -3.26649,0.138267 -6.49856,0.330321 -9.74784,0.495481 l -0.4647,2.117068 16.2088,3.557852 0.47922,-2.183226 -9.19601,-2.018537 0.029,-0.132316 c 3.24928,-0.165161 6.48135,-0.357215 9.74784,-0.495482 l 0.4647,-2.117068 -16.2088,-3.557852 -0.47922,2.183227 9.19602,2.018536 z"
         style="stroke:#000000"
         id="path1491" />
      <path
         d="m 104.8001,81.568589 -0.80666,1.74135 c -0.949,2.048647 -1.05174,3.344718 -0.17971,4.47027 0.88152,1.105066 2.70783,2.050609 5.65788,3.41718 2.95005,1.366571 4.87277,2.157713 6.28573,2.115536 1.42246,-0.06266 2.34465,-0.979131 3.29366,-3.027779 l 0.80666,-1.74135 z m 1.18761,3.237467 10.63248,4.925351 c -0.35113,0.757999 -0.63237,1.150255 -1.45379,1.043453 -0.41621,-0.06839 -0.98681,-0.233185 -1.69284,-0.535361 -0.72652,-0.311666 -1.68939,-0.7577 -2.91857,-1.327105 -1.22919,-0.569404 -2.19206,-1.015438 -2.89959,-1.368077 -0.70754,-0.352639 -1.20223,-0.681327 -1.50305,-0.945091 -0.63312,-0.566994 -0.51577,-1.03517 -0.16464,-1.79317 z"
         style="stroke:#000000"
         id="path1493" />
      <path
         d="m 114.75924,98.318813 -13.76471,-9.2691 -1.361991,2.02257 13.764711,9.269097 z"
         style="stroke:#000000"
         id="path1495" />
      <path
         d="m 107.0816,104.65059 c -0.42991,0.46349 -1.01624,0.16599 -1.44662,-0.23322 l -1.8705,-1.73502 -1.65825,1.78773 1.8705,1.73503 c 1.02269,0.85624 2.10657,1.21492 3.15472,1.04772 0.55538,-0.10074 1.13548,-0.39414 1.68823,-0.99005 1.05944,-1.14216 1.03163,-2.30738 0.61038,-3.31402 -0.21182,-0.53524 -0.56663,-1.04912 -1.03132,-1.51094 l -7.16749,-6.648382 c -0.96367,-0.986267 -1.984937,-1.379252 -2.985822,-1.229811 -0.541225,0.05229 -1.058704,0.311374 -1.596102,0.890732 -0.537398,0.579359 -0.684715,1.335774 -0.577972,2.050692 l -0.778963,-0.322208 -0.98267,1.059398 6.058429,5.619649 2.31849,-2.49952 -1.50633,-1.397235 -0.66023,0.711783 -2.201564,-2.042111 c -0.480039,-0.445273 -0.755679,-0.978106 -0.341115,-1.42504 0.414564,-0.446933 0.983133,-0.196701 1.446619,0.233217 l 7.31647,6.786566 c 0.43038,0.39921 0.77103,0.96155 0.34111,1.42504 z"
         style="stroke:#000000"
         id="path1497" />
      <path
         d="m 89.767925,104.88341 5.678947,7.9576 c 0.828939,1.04495 1.81818,1.61491 2.878504,1.66259 0.564287,0.0134 1.191642,-0.15697 1.853244,-0.62912 1.26807,-0.90496 1.4759,-2.05183 1.26638,-3.12276 -0.0995,-0.56696 -0.34335,-1.14186 -0.70531,-1.68793 l -5.67895,-7.9576 c -0.805299,-1.08955 -1.794539,-1.659513 -2.860127,-1.675709 -0.577402,-0.03174 -1.210019,0.170092 -1.871621,0.642249 -1.212937,0.86561 -1.502128,2.01507 -1.279494,3.10438 0.0995,0.56696 0.343344,1.14185 0.718427,1.7063 z m 9.033583,7.06139 c -0.514579,0.36723 -1.028831,-0.0424 -1.36983,-0.52025 l -5.678947,-7.9576 c -0.380346,-0.53295 -0.542829,-1.11044 -0.04663,-1.46455 0.496202,-0.35412 1.002602,0.006 1.369831,0.52025 l 5.678947,7.9576 c 0.340999,0.47782 0.561207,1.09732 0.04663,1.46455 z"
         style="stroke:#000000"
         id="path1499" />
    </g>
    <text
       xml:space="preserve"
       style="font-size:10.5833px;line-height:1.25;font-family:'Warsaw Gothic';-inkscape-font-specification:'Warsaw Gothic';stroke-width:0.264583"
       x="42.607761"
       y="113.34966"
       id="text94050"><tspan
         sodipodi:role="line"
         id="tspan94048"
         style="stroke-width:0.264583"
         x="42.607761"
         y="113.34966" /></text>
  </g>
</svg>
